<svg xmlns="http://www.w3.org/2000/svg" style="display:block" viewBox="0 0 2048 2048" width="1024" height="1024" preserveAspectRatio="none"><defs><linearGradient id="d" gradientUnits="userSpaceOnUse" x1="619.068" y1="1029.48" x2="615.891" y2="1036.62"><stop class="stop0" offset="0" stop-color="#8ecec7"/><stop class="stop1" offset="1" stop-color="#6caeab"/></linearGradient><linearGradient id="c" gradientUnits="userSpaceOnUse" x1="706.314" y1="1150.85" x2="1262.33" y2="527.632"><stop class="stop0" offset="0" stop-color="#3a9a8d"/><stop class="stop1" offset="1" stop-color="#4dceb6"/></linearGradient><linearGradient id="b" gradientUnits="userSpaceOnUse" x1="614.322" y1="1414.79" x2="1503.38" y2="381.212"><stop class="stop0" offset="0" stop-color="#2e887e"/><stop class="stop1" offset="1" stop-color="#4ad1b7"/></linearGradient><linearGradient id="a" gradientUnits="userSpaceOnUse" x1="601.378" y1="1288.91" x2="1374.33" y2="381.729"><stop class="stop0" offset="0" stop-color="#40ad9b"/><stop class="stop1" offset="1" stop-color="#55dbc3"/></linearGradient></defs><path fill="url(#a)" d="M1454.8 1334.51c-102.26 100.12-250.11 166.57-392.47 181.59-13.52 1.42-27.62 1.13-41.22 1.83-116.307 5.97-228.116-17.07-333.483-67.99-164.318-78.91-289.799-220.83-347.971-393.58-57.744-166.188-43.845-359.35 32.847-517.303 79.959-164.391 222.466-289.88 395.651-348.403 69.574-23.986 142.697-32.711 216.069-36.001 12.784-.573 25.237 1.326 37.987 1.659 95.81 2.501 189.17 29.538 274.78 71.684 48.85 24.046 88.84 52.957 130.54 86.376 134.86 108.076 215.66 262.794 238.8 432.951.92 8.003.36 16.706 1.29 24.635 4.77 40.699 2.93 82.405 2.92 123.504.34 68.342.23 136.688-.35 205.028l-.46 161.06c.15 33.99 1.32 67.9.74 101.92-.36 21.2-4.7 28.67-25.52 35.63-8.24-1.99-11.83-2.8-18.81-8.29-14.03-11.03-27.04-23.34-40.53-35.04l-85.87-74.4c-14.62-12.77-33.82-30.92-48.61-42.27-9.06.5-18.78 1.27-27.79.86-15.76.63-54.56 1.15-69.73-.37l-1.43 1.17c2.06 5.45 30.09 29.29 36.14 34.16 18.25 19.03 47.79 40.61 66.48 59.59"/><path fill="url(#b)" d="M1454.8 1334.51c-102.26 100.12-250.11 166.57-392.47 181.59-13.52 1.42-27.62 1.13-41.22 1.83-116.307 5.97-228.116-17.07-333.483-67.99-164.318-78.91-289.799-220.83-347.971-393.58-57.744-166.188-43.845-359.35 32.847-517.303 79.959-164.391 222.466-289.88 395.651-348.403 69.574-23.986 142.697-32.711 216.069-36.001 12.784-.573 25.237 1.326 37.987 1.659 95.81 2.501 189.17 29.538 274.78 71.684 48.85 24.046 88.84 52.957 130.54 86.376 134.86 108.076 215.66 262.794 238.8 432.951.92 8.003.36 16.706 1.29 24.635 4.77 40.699 2.93 82.405 2.92 123.504.34 68.342.23 136.688-.35 205.028l-.46 161.06c.15 33.99 1.32 67.9.74 101.92-.36 21.2-4.7 28.67-25.52 35.63-8.24-1.99-11.83-2.8-18.81-8.29-14.03-11.03-27.04-23.34-40.53-35.04l-85.87-74.4c-14.62-12.77-33.82-30.92-48.61-42.27-9.06.5-18.78 1.27-27.79.86 1.87-1.85 2.38-1.54 5.11-1.9 10.76-8.34 13.59-13.23 21.78-23.14 70.17-85.02 115.4-188.91 129.25-298.345 21.32-159.037-21.98-319.985-120.22-446.857A597.45 597.45 0 0 0 1060 244.239a602.48 602.48 0 0 0-441.36 122.922 594.33 594.33 0 0 0-192.444 265.037c-4.71 13.345-9.4 27.366-13.398 41.163-3.404 11.747-5.692 26.064-9.109 37.915-.441 1.528-4.231 3.93-5.955 6.212 1.098 2.283 1.242 2.135 3.323 3.679.02 8.206-1.937 18.16-3.247 26.438-4.694 29.679-7.152 60.286-7.095 90.335.056 158.224 63.426 309.85 175.977 421.05 109.289 108.72 267.913 175.14 422.238 174.77a600.55 600.55 0 0 0 336.9-105.71c20.36-13.85 40.87-29.1 58.97-45.97 2.29-2.13 2.84-4.16 3.52-7.16 18.25 19.03 47.79 40.61 66.48 59.59"/><path fill="#fefefe" d="M831.917 419.758c-5.659-2.025-4.118-.587-7.923-4.606l-.272-1.903c1.81-2.333 1.613-2.356 4.241-3.593 4.053 2.365 5.642 5.893 9.65 6.965l1.39-.612c20.115-8.745 44.799-12.405 66.006-17.775 4.746-1.202 5.31-7.192 6.176-11.137 7.712-8.056 11.728 2.223 14.667 7.153 4.299-.434 11.343-.807 15.116-2.309l1.846-3.005 1.932-.419c4.409 3.214 3.756 3.713 7.981 3.298 3.265-5.093-1.075-4.78 1.941-8.19 4.102.951 4.051 2.993 5.538 6.854.88-1.747.63-2.285.814-4.447l1.517-1.509c3.219.02 1.902-.542 4.145 1.583l.217 1.714c.28 2.082.056 1.287.603 2.738 8.146 1.667 11.998-.075 19.504-3.504 2.54 1.083 7.308 3.576 9.648 3.575-1.647-2.801-1.394-6.355-1.514-9.623l1.385-1.401 2.947.181c2.328 2.873 2.688 4.343 5.618 4.941 1.52-1.637 1.7-1.9 2.88-3.808 3.62-.805 4.03.188 7.01 2.669 2.72-.637 3.56-2.011 5.49-4.063-.37-3.057.19-1.654-2.15-4.151l-4.51-1.062.43-1.417c1.88-.832 3.58-2.228 5.38-1.235 15.23 8.372 24.06 35.206 45.38 20.279 7.53 1.401 11.72 13.026 18.56 7.23 4.75-4.031 12.2-8.93 18.77-4.669.07 5.359-2.99 3.779-3.11 9.369 13.25 8.223 27.25 5.296 40.55 1.937 1-.251 2.81 1.698 3.48 2.892-2.33 2.019-8.7 2.456-12.43 3.221 2.18 6.402 47.74 16.077 55.18 26.528 3.99.08 10.92 3.883 11.4 3.632 13.9-7.209 20.38 6.545 27.93 7.317 3.2-3.932-1.14-.907 3.35-6.836l-.22-.946c-4.27-1.354-4.99-.811-7.55-3.628 1.48-3.103 4.09-4.3 7.46-5.576 3.64 3.657 3.45 3.682 2.85 9.099 7.24 1.875 7.77 10.089 6.79 16.998-.17 1.219-5.91 3.286-7.6 4.115 4.81 4.301 5.47 4.15 11.77 2.884l2.55 1.284c.72 2.535.69 2.964.87 5.628 4.67 5.061 9.85 6.823 13.01 10.558 5.68 2.488 14.34 11.642 17.88 12.555l1.61-.889c1.89-1.033 2.73-1.374 4.8-2.107 7.5 2.367-2.71 2.849 6.94 4.298 4.23-1.59 2.35-1.74 5.87-.776 2.11 4.747-.76 14.89-.25 15.503 5.83 6.947 18.54 21.894 26.69 25.073l1.69.646c5.15 2.026 3.47 10.783 10.91 17.759 2.85-.771 1.76-.348 4.15-2.555 2.94-.009 1.58-.41 4.1 1.564l.55 2.485c-1.84 2.729-3.08 2.769-6.54 3.442 8.57 3.457 31.91 45.245 38.78 53.8 1.78 2.216 6.99 3.709 9.75 4.524 1.77 2.698 1.15 1.187.87 5.034-1.98 1.15-.94.648-3.13 1.494l-.66 1.24c3.08 4.066 9.83.989 11.66 5.048-1.34 3.362-3.12 2.945-6.71 3.404 2.62 11.946 5.27 6.973 8.9 13.481 4.69 8.408-.97 9.438 9.78 17.871.44 2.087.62 1.189-.14 2.741.18-3.235.26-4.892 2.3-7.352 4.61-.684 8.2 5.839 8.47 9.509-3.52 1.454-4.19-1.726-7.09-1.203-.81 3.664-1.56 4.312-3.91 7.008.71 7.696 3.8 8.435 9.17 13.114-2.26 4.771-4.5 10.53.49 14.584 3.44-3.51 3.59-5.589 6.92-5.9l1.67 2.312c-2.43 3.932-7.64 12.418-5.86 16.369 3.57 7.882 9.13 42.188 11.59 47.101 2.94-1.979 1.31-1.406 5.15-1.403 2.9 2.287 1.93.813 2.63 4.809-1.8 4.058-3.3 3.573-7.61 4.109-.49 7.2.98 7.538 6.77 11.592l.75 2.598c-2.11 2.236-1.92 1.721-5.13 2.844.68 5.602 1.66 12.158 2.1 17.698 1.98.892 3.29 1.841 5.36 2.498l.78-2.886c1.68 2.039 1.65 1.163 1.58 3.274-.28 7.635 1.11 11.882 4.16 18.714l-1.14 1.662c-4.96-.674-6.63-2.118-9.78-.295-1.79 3.735-.5 9.228.45 13.16 3.81 4.553 8.82 2.123 11.53 6.417-1.19 4.194.01 2.811-2.9 4.918-4.53-.334-7.03-2.459-8.94-1.594-.54 10.132-4.79 42.412-4.38 48.017 4.52 2.395 4.08 1.18 5.24 4.701-1.27 3.344-3.13 3.62-6.96 5.609-.12 4.97-2.24 10.417-2.84 15.779 3.71.425 3.67-.261 5.42 1.855-1.39 4.294-1.69 3.778-6.34 5.239-1.57 2.402-6.39 21.222-6.96 24.956-1.9 12.261-10.67 25.431-8.13 37.267.67 3.154 1.85 9.079 1.16 11.879-2.57 1.59-1.2 1.32-4.26.73-2.87-4.41 1.39-11.21.04-13.862-3.38 13.162-13.42 30.322-19.1 43.142-3.95 8.92-8.75 11.99-8.71 22.13l.02 1.2c-7.53 2.74-9.18 9.16-13.54 16.27-5.07 8.25-13.46 17.52-17.56 25.7 1.05 2.48 3.38 3.58 5.72 5.17l.61 1.97c-3.3.68-3.42.17-6.63-.74l-1.83.91-2.1-1.03c-3.71 2.14-3.71 3.23-7.22 4.83-13.05 15.59-25.83 30.29-40.6 44.27-2.34 2.22-8.75 7.6-8.81 10.3l2.05 1.51-.5 1.58-1.45.62-2.46-2.32c-3.14 1.44-8.79 6.5-11.67 8.92-31.88 26.89-64.92 46.95-102.51 64.63-2.13 2.13-14.83 12.86-16.93 13.9-7.68-1.76 1.29-4.95-9.87-1.2-12.47 4.2-33.09 13.22-45.33 14.29l-.37 1.89c9.8-2.14 4.89 7.89 15 7.85 2.85-1.55 3.21-1.89 5.63-3.86 3.31.22 1.85-.3 4.53 1.64 1.44 3.71 1.2 1.79.34 5.99l-2.06 2.29c-8.37-1.26-13.96-4.76-22.53-5.4-2.43-2.53-2.8-4.51-3.95-7.81-5.98-3.67-8.08.38-13.94 1.64-38.1 8.24-78.02 10.68-116.97 9.32-2.976-.1-3.858 1.16-5.19 3.27-.178 5.12.774 5.47-1.881 7.95-7.989.74-16.231-4.06-23.078-8.29-1.325-.82-1.14-4.74-1.473-4.91-13.348-6.5-42.557-4.02-54.584-13.22-51.767-14.01-101.982-34.8-146.366-65.27a443.32 443.32 0 0 1-184.16-286.15 418 418 0 0 1-6.202-53.971c-.32-7.2-.26-29.557-1.259-34.966l-3.29-1.705.229-1.356 3.08-1.748c.036-.073 5.694-53.976 5.751-56.47-1.953-.587-1.2-.018-2.301-1.654.609-.367 3.311-2.186 3.443-2.992 26.716-163.211 133.191-281.232 284.328-342.8"/><path fill="#7bcbc1" d="M1337.01 559.974c8.57 3.457 31.91 45.245 38.78 53.8 1.78 2.216 6.99 3.709 9.75 4.524 1.77 2.698 1.15 1.187.87 5.034-1.98 1.15-.94.648-3.13 1.494l-.66 1.24c3.08 4.066 9.83.989 11.66 5.048-1.34 3.362-3.12 2.945-6.71 3.404 2.62 11.946 5.27 6.973 8.9 13.481 4.69 8.408-.97 9.438 9.78 17.871.44 2.087.62 1.189-.14 2.741.18-3.235.26-4.892 2.3-7.352 4.61-.684 8.2 5.839 8.47 9.509-3.52 1.454-4.19-1.726-7.09-1.203-.81 3.664-1.56 4.312-3.91 7.008.71 7.696 3.8 8.435 9.17 13.114-2.26 4.771-4.5 10.53.49 14.584 3.44-3.51 3.59-5.589 6.92-5.9l1.67 2.312c-2.43 3.932-7.64 12.418-5.86 16.369 3.57 7.882 9.13 42.188 11.59 47.101 2.94-1.979 1.31-1.406 5.15-1.403 2.9 2.287 1.93.813 2.63 4.809-1.8 4.058-3.3 3.573-7.61 4.109-.49 7.2.98 7.538 6.77 11.592l.75 2.598c-2.11 2.236-1.92 1.721-5.13 2.844.68 5.602 1.66 12.158 2.1 17.698 1.98.892 3.29 1.841 5.36 2.498l.78-2.886c1.68 2.039 1.65 1.163 1.58 3.274-.28 7.635 1.11 11.882 4.16 18.714l-1.14 1.662c-4.96-.674-6.63-2.118-9.78-.295-1.79 3.735-.5 9.228.45 13.16 3.81 4.553 8.82 2.123 11.53 6.417-1.19 4.194.01 2.811-2.9 4.918-4.53-.334-7.03-2.459-8.94-1.594-.54 10.132-4.79 42.412-4.38 48.017 4.52 2.395 4.08 1.18 5.24 4.701-1.27 3.344-3.13 3.62-6.96 5.609-.12 4.97-2.24 10.417-2.84 15.779 3.71.425 3.67-.261 5.42 1.855-1.39 4.294-1.69 3.778-6.34 5.239-1.57 2.402-6.39 21.222-6.96 24.956-1.9 12.261-10.67 25.431-8.13 37.267.67 3.154 1.85 9.079 1.16 11.879-2.57 1.59-1.2 1.32-4.26.73-2.87-4.41 1.39-11.21.04-13.862-3.38 13.162-13.42 30.322-19.1 43.142-3.95 8.92-8.75 11.99-8.71 22.13l.02 1.2c-7.53 2.74-9.18 9.16-13.54 16.27-5.07 8.25-13.46 17.52-17.56 25.7 1.05 2.48 3.38 3.58 5.72 5.17l.61 1.97c-3.3.68-3.42.17-6.63-.74l-1.83.91-2.1-1.03c-3.71 2.14-3.71 3.23-7.22 4.83 6.58-9.19 13.53-18.16 19.99-27.41 6.67-9.55 11.46-18.96 19.86-27.26-.98-1.77-.54-.83-1.31-2.83 42.65-69.353 56.76-151.716 58.53-231.843l4.11.215c1.86-2.755 1.46-1.318 1.67-4.316-3.05-.202-2.72.394-5.92 2.512-1.97-15.336-3.06-30.877-5.16-46.003-9.82-70.903-35.46-138.202-77.56-196.279-3.77-5.2-12.18-15.443-14.47-20.802M831.917 419.758c-5.659-2.025-4.118-.587-7.923-4.606l-.272-1.903c1.81-2.333 1.613-2.356 4.241-3.593 4.053 2.365 5.642 5.893 9.65 6.965l1.39-.612c20.115-8.745 44.799-12.405 66.006-17.775 4.746-1.202 5.31-7.192 6.176-11.137 7.712-8.056 11.728 2.223 14.667 7.153 4.299-.434 11.343-.807 15.116-2.309l1.846-3.005 1.932-.419c4.409 3.214 3.756 3.713 7.981 3.298 3.265-5.093-1.075-4.78 1.941-8.19 4.102.951 4.051 2.993 5.538 6.854.88-1.747.63-2.285.814-4.447l1.517-1.509c3.219.02 1.902-.542 4.145 1.583l.217 1.714c.28 2.082.056 1.287.603 2.738 8.146 1.667 11.998-.075 19.504-3.504 2.54 1.083 7.308 3.576 9.648 3.575-1.647-2.801-1.394-6.355-1.514-9.623l1.385-1.401 2.947.181c2.328 2.873 2.688 4.343 5.618 4.941 1.52-1.637 1.7-1.9 2.88-3.808 3.62-.805 4.03.188 7.01 2.669 2.72-.637 3.56-2.011 5.49-4.063-.37-3.057.19-1.654-2.15-4.151l-4.51-1.062.43-1.417c1.88-.832 3.58-2.228 5.38-1.235 15.23 8.372 24.06 35.206 45.38 20.279 7.53 1.401 11.72 13.026 18.56 7.23 4.75-4.031 12.2-8.93 18.77-4.669.07 5.359-2.99 3.779-3.11 9.369 13.25 8.223 27.25 5.296 40.55 1.937 1-.251 2.81 1.698 3.48 2.892-2.33 2.019-8.7 2.456-12.43 3.221 2.18 6.402 47.74 16.077 55.18 26.528-9.22-3.478-19.49-8.45-28.78-12.306-6.08-2.525-24.02-8.782-28.61-11.726l-.03-2.277-1.67-1.049c-1.14 1.681-.5.873-1.93 2.415-8.98-1.778-25.65-6.476-33.9-9.894-1.41-2.946-.86-1.473-.5-5.341l-1.71-.792-1.62.683-.51 3.666c-.5.33-1.01.66-1.51.991-7.61-1.589-29.35-4.827-35.49-5.851-66.62-11.115-133.086-3.579-197.201 16.655-6.658 2.101-13.792 4.473-20.622 6.137"/><path fill="#dbfefe" d="M912.324 386.955c3.936-.109 3.989-.006 7.88.955 3.272 2.942 2.257 1.598 3.305 6.543-3.337-1.272-5.722-1.347-9.228-1.911-2.442-2.852-1.536-1.176-1.957-5.587"/><path fill="#7bcbc1" d="M957.186 1281.92c87.484 2.65 133.704-6.09 214.134-38.42-2.13 2.13-14.83 12.86-16.93 13.9-7.68-1.76 1.29-4.95-9.87-1.2-12.47 4.2-33.09 13.22-45.33 14.29l-.37 1.89c9.8-2.14 4.89 7.89 15 7.85 2.85-1.55 3.21-1.89 5.63-3.86 3.31.22 1.85-.3 4.53 1.64 1.44 3.71 1.2 1.79.34 5.99l-2.06 2.29c-8.37-1.26-13.96-4.76-22.53-5.4-2.43-2.53-2.8-4.51-3.95-7.81-5.98-3.67-8.08.38-13.94 1.64-38.1 8.24-78.02 10.68-116.97 9.32-2.976-.1-3.858 1.16-5.19 3.27-.178 5.12.774 5.47-1.881 7.95-7.989.74-16.231-4.06-23.078-8.29-1.325-.82-1.14-4.74-1.473-4.91-13.348-6.5-42.557-4.02-54.584-13.22a575 575 0 0 0 52.213 9.98c5.676.82 21.737 1.3 24.601 4.3-.154 4.85-2.946 5.78-4.245 10.2 3.948-.17 2.155.38 5.538-1.85 1.534-2.98.745-6.06.415-9.55"/><path fill="#51ddc9" d="M1186 438.447c3.99.08 10.92 3.883 11.4 3.632 13.9-7.209 20.38 6.545 27.93 7.317 3.2-3.932-1.14-.907 3.35-6.836l-.22-.946c-4.27-1.354-4.99-.811-7.55-3.628 1.48-3.103 4.09-4.3 7.46-5.576 3.64 3.657 3.45 3.682 2.85 9.099 7.24 1.875 7.77 10.089 6.79 16.998-.17 1.219-5.91 3.286-7.6 4.115 4.81 4.301 5.47 4.15 11.77 2.884l2.55 1.284c.72 2.535.69 2.964.87 5.628 4.67 5.061 9.85 6.823 13.01 10.558l-2.07.589c-17.37-13.21-35.89-25.523-54.95-36.178-3.33-1.86-13.83-6.677-15.59-8.94"/><path fill="#7bcbc1" d="M1258.61 482.976c5.68 2.488 14.34 11.642 17.88 12.555l1.61-.889c1.89-1.033 2.73-1.374 4.8-2.107 7.5 2.367-2.71 2.849 6.94 4.298l3.14.147c3.74 4.179.7 11.358.25 16.752a408 408 0 0 0-36.69-30.167z"/><path fill="#51ddc9" d="M1289.84 496.833c4.23-1.59 2.35-1.74 5.87-.776 2.11 4.747-.76 14.89-.25 15.503 5.83 6.947 18.54 21.894 26.69 25.073l1.69.646c5.15 2.026 3.47 10.783 10.91 17.759 2.85-.771 1.76-.348 4.15-2.555 2.94-.009 1.58-.41 4.1 1.564l.55 2.485c-1.84 2.729-3.08 2.769-6.54 3.442-2.67-1.934-16.79-18.657-19.87-22.111a302 302 0 0 0-23.91-24.131c.45-5.394 3.49-12.573-.25-16.752z"/><path fill="url(#c)" d="M963.358 416.889c8.216-1.791 36.752-1.888 44.852-.576 2.21 2.28 1.32.924 2.02 4.617l1.32-.469 1.24-3.447c3.26-1.192 16.44.534 20.87 1.058a417.2 417.2 0 0 1 129.79 36.268 422.46 422.46 0 0 1 211.68 216.74c25.73 53.033 39.37 137.51 33.99 196.025-.55 5.911-1.99 27.594-5.3 30.916l-3.24-.157-.11 1.498 3.41.715c2.18 8.666-12.05 61.908-15.92 72.791-5.14 14.374-9.45 26.004-16.4 39.792-47.19 103.09-133.9 182.83-240.57 221.25-7.95 2.95-38.03 12.74-45.7 13.51l-2.58-2.22-1.63 1.23-1.02.75c.1-.06-2.76 2.07-2.18 1.8-12.52 5.78-76.73 11.59-87.337 9.69-1.119-1.78-.624-.89-1.498-2.68l-1.648.11-.944 2.21c-5.238.65-16.227.06-21.389-1.08l-.633-3.61c-2.486-.79-1.284-.93-3.692.08l-.477 3.2c-16.098 2.14-77.075-9.5-92.414-16.09-39.762-11.35-61.78-22.5-97.576-42.11-17.763-7.93-55.912-37.69-70.595-51.7-27.398-26.13-64.829-70.54-80.905-104.84l-8.043-13.87c-17.498-30.505-36.329-93.65-41.32-129.248-9.327-66.527-2.632-140.568 19.894-203.979 2.868-8.073 9.557-26.556 14.241-32.9-.019-1.064.596-3.08 1.053-4.062 21.643-46.541 51.561-88.398 88.705-123.841 3.572-3.408 13.769-13.715 17.562-15.191l2.426 1.176 1.251-.887-1.634-1.94c1.922-3.621 20.346-17.269 24.232-20.082 54.104-39.17 112.532-62.546 177.684-75.949 14.093-2.184 34.439-4.111 48.535-4.498"/><path fill="#51ddc9" d="M963.358 416.889c8.216-1.791 36.752-1.888 44.852-.576 2.21 2.28 1.32.924 2.02 4.617l1.32-.469 1.24-3.447c3.26-1.192 16.44.534 20.87 1.058a417.2 417.2 0 0 1 129.79 36.268 422.46 422.46 0 0 1 211.68 216.74c25.73 53.033 39.37 137.51 33.99 196.025-.55 5.911-1.99 27.594-5.3 30.916l-3.24-.157-.11 1.498 3.41.715c2.18 8.666-12.05 61.908-15.92 72.791-5.14 14.374-9.45 26.004-16.4 39.792l-1.01-3.27c-4.24-2.84-6.49-1.66-12.05-.73l-1.42-1.03c-.72-2.81.33-4.37 1.45-7.1.06-3.374-.32-1.687 2.07-4.962-2.14-1.066-3.07-1.611-5.08-2.925-.62-2.65-.61-1.27.9-4.21 4.44-2.319 6.06.986 10.62-.353l.53-2.61c-3.14-.993-1.66-.153-3.82-4.168l-.8 2.079c-3.23 1.614-1.54 1.305-5.3.7l-1.16-1.601c2.9-5.31 22.48-6.209 30.03-9.01-.66-6.495 10.23-27.914 6.85-31.855-3.41.082-3.88.149-7.38-.458-2.05-2.371-1.39-.96-1.4-4.613 4.37-2.13 5.54.562 11.57-.797 3.99-18.013-9.51-9.004-14.87-10.905-1.32-2.176-1.19-3.047-.8-5.605 2.21-14.493-4.25-7.726-8.91-15.133.37-3.21 1.35-6.153 4.65-7.072 3.5 2.746 3.56 2.769 7.83 1.866 2.7 1.554 2.48 1.512 4.05 4.259l-.58 1.579c-2.46 1.353-3.31 1.609-5.26 3.645l.26 1.913c2.97 3.48 3.3 3.644 7.21 6.151 5.23-12.193 7.89-31.279 16.38-40.603.2-3.235.02-5.513 1.55-8.354-.64-18.215 1.38-41.748-1.08-59.57-.16-1.218-17.27-33.178-17.8-33.596-1.81 2.182-2.17 3.046-4.73 4.195-2.86-1.139-1.65-.255-3.52-3.024-.31-3.748-.82-2.192.97-4.974-3.65.072-3.96.341-6.89 2.157-1.22-3.162-.52-6.784-1.47-10.967-2.5-.216-1.65.162-3.6-1.186l.25-1.646c1.95-.416 2.81-.613 4.68-1.273l-.38-3.627c2.25.838 4.42.621 6.77.384 3.83 7.318-4.33 6.623-3.6 14.299 3.19.564 7.21.58 9.71-1.744 1.04-3.897-2.11-7.487-3.2-11.626-2.71-9.005 1.66-8.875 4.95-12.113.73-.717 3.04-15.189 2.89-16.843-1.52-16.253-10.7-39.533-23.03-50.412-2.61-2.311-4.35-.702-7.26-5.281l-.69-1.702c-.41 2.78-.23 2.724-1.85 4.958l-2.26-.123c-3.1-2.054-5.43-2.886-4.18-6.859 4.63-3.82 6.9-2.42 9.5-4.873-.81-4.328-8.6-10.253-8.1-12.162 5.21-19.677-3.35-17.576-15.38-28.523-2.82-2.572-6.7-11.638-11.98-15.874-1.77 1.642-2.67 2.434-4.6 3.862-1.78-1.619-1.15-.625-1.42-3.311 2.17-2.623.82-1.686 4.37-2.607-5.59-5.85-11.23-11.656-16.91-17.419 1.43.2 9.94 5.483 12.57 6.711-.86-.831-1.67-1.674-2.08-2.817-4.55-12.722-21.6-12.908-28.69-17.249.28-3.131.53-2.117-.32-4.916-12.58-6.018-4.82-16.406-9.51-18.587-6.71-3.113-15.46-9.876-21.71-13.5-15.51-9.007-20.54-22.527-29.42-37.477-9.13-3.61-46.17-18.055-53.28-15.616-2.5 3.26-1.61 1.432-2.23 5.904 2.04.859 2.35.708 4.58.859l-.01 1.676c-2.5.269-7.06-.572-8.53-2.739-3.05-2.076-3.72-2.056-7.22-2.823-.6-2.344-1.03-7.868.02-10.273 2.5-1.145 2.71-.82 4.36-2.641-5.61-4.808-18.02-5.893-21.86-10.169 0-2.744 1.04-3.075 3.09-5.848-5.25-5.097-4.67-.213-8.7-4.892l2.4-.701c-4.4-5.997-27.46-16.281-34.96-15.055-11.27 1.843-17.82 5.54-30.33 3.493-10.38-1.699-19.06-7.543-29.34-9.939-5.86 8.918-14.73 2.455-13.77-2.637l2.73-1.549 1.8.653 1.51 3.448.72-.29c-1.12-3.881-.69-2.287 1.22-7.129-6-4.703-12.51.829-17.26-2.651-.07 2.365-.18 2.507-.83 4.809l-2.02.334-1.72-1.417c-.82-2.268-.92-2.797-2.08-4.88-5 1.335-11.84 12.301-15.69 16.965-8.898-1.094-5.05-9.066-8.136-9.29-22.739-1.645-40.702 14.933-64.919 4.231.501.221-13.309 7.437-15.215-6.006l1.823-2.613c14.093-2.184 34.439-4.111 48.535-4.498"/><path fill="#7bcbc1" d="M914.823 421.387c14.093-2.184 34.439-4.111 48.535-4.498-6.412 2.591-8.159 2.75-14.897 2.999 6.046 3.727 8.866 3.323 7.482 10.921-4.358 1.665-6.961.516-11.34-.802-17.837-5.858-13.538.425-25.277-.19-2.474-2.952-3.158-3.668-6.326-5.817z"/><path fill="#dbfefe" d="M944.603 430.007c1.762-3.307 1.871-3.964 5.122-5.976 3.65-.081 2.026-.614 4.949 1.907l1.269 4.871c-4.358 1.665-6.961.516-11.34-.802m217.377 55.427c4.34-5.262-.71-5.316 2.87-9.142 3.87-.001 6.2 2.051 8.02 5.319-.46 2.965-1.1 3.528-2.67 6.084l-1 .562c-3.05-2.076-3.72-2.056-7.22-2.823"/><path fill="#7bcbc1" d="M867.848 1240.81c6.952-2.05 29.033 8.2 36.957 7.58 7.623-2.22 5.333-9.47 8.156-14.18 1.426-2.38 5.531 0 6.855 2.45-.662 2.03-1.013 3.08-1.413 5.17l4.662 2.71c1.711-.92 2.577-1.27 4.39-1.98 5.926 2.43-.952 3.81 2.856 9.62 4.198 1.78 5.466 1.52 10.171 1.66.79-3.53.036-2.5 2.179-4.9 3.881-.66 12.792-2.34 16.632-2.15 1.418.06 1.329 3.75 6.827 4.3 4.683-2.8 13.99-8.44 18.784-5.35l-.385 1.51c-2.983 2.28-4.718 3.35-7.96 5.27l-.616 1.89c-1.155.64-1.482.61-2.206 1.54 7.73 4.11 13.88-4.16 18.825-8.1l2.457.6c1.688 2.43 1.337 1.1.953 4.14-5.801 5.05-.996-.85-5.725 1.65 1.575 2.11 1.932 2.02 4.301 3.32 6.082-.98 7.432-6.45 12.112-5.48-.52 3.01-.94 1.97.12 4.02 7.63 1.82 61.93-4.92 71.82-9.07 1.1-.46 1.05-2.24 1.4-3.94 7.9-2.14 7.81 9.66 20.8-6.33 4.17.26 2.15-.29 6.02 2.52l1.22-.23c.37-2.66.19-3.3 1.55-5.53 3.41.04 4.87 1.27 8.19 2.84 7.25-2.22 48.71-17.03 52.17-21.1-5.49-1.23-8.24 2.62-12.3.97l-.5-1.76c-2.43-2.53-6.42-3.6-9.83-4.88-.38-2.57.12-1.93-1.26-3.72l-1.24 1.16c-.91 3.22-1.01 3.77-3.99 4.36l-3.17-2.15-1.03.64 1.72 5.32c-1.72 4.86-10.04 4.07-11.68-.37l1.07-1.61c5.44-1.44 8.33-6.42 12.31-8.29 9.1-4.29 16.53 4.88 23.6 7.98 1.55 1.11 12.28-4.21 12.38-4.18 12.4 3.93 9.11-5.29 13.57-8.2 2.55 1.57 2.63 1.9 5.52 2.33 11.2-7.9 23.99-14.46 35.07-22.46 3.8-2.73 2.17-12.9 11.32-14.26l2.43 2.49c4.94-.51 8.98-5.56 12.64-9.25-.08-5.05-.53-7.44 2.37-11.54l.93.04c.64 2.7.74 4.5 2.83 6.53l-.15.09a697 697 0 0 0 17.84-16.96c-.09-2.67-.14-2.98.34-5.58l2.2-1.47c2.17.58 2.09.62 4.32.5 7.34-7.27 48.11-51.5 46.78-58.38-2.99-1.65-9.55-.8-13.83-.91l-1.16-1.23c4.93-10.25 22.63-4.32 26.79-12.9-1.09-2.76-1.54-6.2-3.22-7.26-3.5 1.33-5.6 4.38-8.12 7.26l-.79-.5 1.77-4.37c-.77-3.36-1.85-6.47.52-9.16 4.55-.75 12.54 1.92 13.72 6.58 4.1-4.82 16.56-29.05 18.18-36.22-.96-3.13-.45-3.21-2.54-5.16-2.37 2.2-2.51 2.56-5.51 3.95l-2.61-1.12c-4.21-4.96-3.8-7.63 1.29-11.04-1.12 2.73-2.17 4.29-1.45 7.1l1.42 1.03c5.56-.93 7.81-2.11 12.05.73l1.01 3.27c-47.19 103.09-133.9 182.83-240.57 221.25-7.95 2.95-38.03 12.74-45.7 13.51l-2.58-2.22-1.63 1.23-1.02.75c.1-.06-2.76 2.07-2.18 1.8-12.52 5.78-76.73 11.59-87.337 9.69-1.119-1.78-.624-.89-1.498-2.68l-1.648.11-.944 2.21c-5.238.65-16.227.06-21.389-1.08l-.633-3.61c-2.486-.79-1.284-.93-3.692.08l-.477 3.2c-16.098 2.14-77.075-9.5-92.414-16.09m-257.119-212.52c-17.498-30.505-36.329-93.65-41.32-129.248-9.327-66.527-2.632-140.568 19.894-203.979 2.868-8.073 9.557-26.556 14.241-32.9-1.628 11.576-18.261 40.222-14.865 47.662 7.13-5.045 2.919-27.025 13.846-27.108 1.551 2.766 1.021 1.265.71 4.885-1.711 1.717-2.182 2.029-4.183 3.431-4.159 10.511-5.54 24.598-7.098 35.997l.889 1.53 4.6.995c1.029 2.673.977 1.36.23 4.07-6.823 3.391-14.718-6.901-19.478 5.245l4.365-1.821 1.676.692c.469 2.872.661 1.844-.097 4.416-3.486.931-1.733.652-5.985-.481-5.533 13.645-12.953 82.852-10.452 101.207.437 3.204 3.57-.881 4.481 5.549-3.866 6.907-7.91 4.941-3.767 16.585l1.6 1.447 2.396-.288c2.045-6.434-5.877-11.505-.786-15.58 4.169.538 2.265-.174 5.803 2.516l.611 2.045c-4.876 5.908-3.378 6.39.864 12.627-.172 3.13.457 1.916-1.694 3.882l-4.395.564c-2.272 5.179-.076 7.528 1.183 12.542.14.557-4.019 3.944-3.768 6.952 1.305 15.6 5.875 32.721 9.311 48.119.478 2.143 2.456 3.916 3.932 4.913l5.423.77c3.89 5.227-5.898 26.864 5.944 34.916l1.878-.231c3.179-5.212.498-15.389 3.202-17.299 2.019 3.136 1.635 14.518 1.402 18.608-2.171 2.129-2.086 2.081-4.776 3.486-3.273 7.629 10.213 28.224 12.656 36.554 2.028 6.92 8.586 2.29 13.604 8.33l.357 1.94 2.031 1.84c-.372 2.49-.717 4.99-1.034 7.49l-2.349-1.24c-1.804 1.08-1.485.8-3.039 2.24z"/><path fill="url(#d)" d="M610.729 1028.29c6.086 2.69 4.788-1.66 12.434 3.54l2.031 1.84c-.372 2.49-.717 4.99-1.034 7.49l-2.349-1.24c-1.804 1.08-1.485.8-3.039 2.24z"/><path fill="#51ddc9" d="M603.544 662.163c-.019-1.064.596-3.08 1.053-4.062 21.643-46.541 51.561-88.398 88.705-123.841 3.572-3.408 13.769-13.715 17.562-15.191l2.426 1.176 1.251-.887-1.634-1.94c1.922-3.621 20.346-17.269 24.232-20.082 54.104-39.17 112.532-62.546 177.684-75.949L913 424c-10.167 1.722-47.681 7.478-49.209 18.529 4.877-.659 5.594-4.519 9.615-4.668-.409 4.31-8.877 11.614-13.472 11.889-1.873-2.006-1.739-2.585-2.567-5.293-5.165.6-6.92.859-11.866 2.375l1.316.017c3.223.067 4.94-.301 7.463 1.553l-.496-.537-.092 2.165c-6.047.265-13.233 1.102-15.59-4.859-14.966 2.172-100.547 49.497-112.942 64.308-3.834 4.581-3.325 10.694-3.334 16.469-3.06 1.935-1.473 1.577-4.84 1.435-2.233-1.822-3.674-3.102-5.765-5.09-4.981.553-34.492 32.128-40.074 37.374-1.709 1.606-2.354 4.218-2.314 6.638 1.832 3.815 3.717 5.652 3.233 8.986-2.74 1.739-1.22 1.32-4.822.798l-1.023-1.383c.418-2.054.449-2.218 1.135-4.269-8.856 2.222-14.441 10.723-19.232 18.006-5.089 7.738 5.104 9.515-9.016 13.288-5.178 5.693-6.816 11.725-11.001 17.715-4.539 6.498-24.18 36.794-17.813 43.015l2.507.7c.812 4.133-5.992 9.697-8.929 12.684l-.829.091c1.039-6.192 2.648-5.744 1.887-13.251z"/><path fill="#7bcbc1" d="M618.772 1042.16c1.554-1.44 1.235-1.16 3.039-2.24l2.349 1.24c.009 1.77-1.211 3.96-1.185 4.87.085 2.93 17.172 28.63 20.002 31.36 2.253 2.17 5.787 2.82 8.729 3.5l2.31-.69c1.196-2.94.727-3.31.45-6.71l1.349-.43-1.324.6 1.89.01c3.976 4.35 2.29 11.31 4.504 12.78 6.054 4.02 9.363-3.6 9.691 7.09l-.924.93-5.244-2.47c-2.214 1.05-2.734 1.44-4.753 2.87 1.53 2.37 5.664 6.48 8.431 7.17.687-3.03 1.121-3.18.411-5.98l1.249-.29c2.789 3.63-2.282 10.92.698 12.93 14.104 9.53 8.008.15 11.729 13.37 3.594-1.91 4.624-4.02 8.253-3.94 3.77 2.51 2.939 3.42 3.327 7.92.691 8.03 13.703 14.8 19.67 20.87l2.068.29 2.59-3.23 1.529-.04c3.4 4.05 4.158 5.15 8.292 8.26l.578 1.99-1.129.33-5.315-3.63c-5.935 2.75 1.263 3.78-5.575 4.27-1.209-1.86-1.238-1.99-1.993-4.09l-5.255-1.27.338-.99 1.506-.69c-3.445-3.24-3.156.59-8.487-3.58.19-1.64.229-2.65.097-4.33-1.52 2.69-1.055 2.41-1.06 5.91 1.399 3.18 34.931 27.63 40.536 32.2 7.235 5.89 22.313 12.98 28.129 20.38-17.763-7.93-55.912-37.69-70.595-51.7-27.398-26.13-64.829-70.54-80.905-104.84"/><path fill="#51ddc9" d="m752.9 598.983 465.94.11q.345 55.93.09 111.863l-170 .052.1 216.242-.06 163.66-123.276-.24c-.924-42.85-.138-87.72-.181-130.744l.009-248.975-172.524.109z"/><path fill="#dbfefe" d="M1390.32 807.651c1.8.069 3.71 1.604 4.73 3.032-1.05 3.805-1.87 3.606-5.06 6.889a741 741 0 0 1-6.9-4.843l.32-1.307c2.6-1.302 4.41-2.292 6.91-3.771m-317.5 421.159 1.62-.76 1.22.67c1.56 4.54 1.62 2.42.5 6.56-2.98 2.53-3.33 1.8-7.97 2.48l1.17-3.25c-.87-3.49-.03-1.96-2.98-4.52 2.36-.56 4.05-.81 6.44-1.18m220.08-141.01c2.14 1.95 2.35 3.15 2.82 5.76l-1.11 1.04-2.9-1.31c-2.48 1.23-1.68.91-4.45 1.43l-.99-1.22c2.65-4.4 1.61-2.96 6.63-5.7M829.136 455.034l2.294.292.25 1.426c-3.169 2.57-3.66 3.1-5.869 6.527-2.696-1.292-1.732-.335-3.106-2.847 1.102-2.613 3.869-3.793 6.431-5.398m-6.538 821.566c3.885 1.73 5.983 3.27 5.66 7.88-2.473 1.91-2.694 2.03-3.636 5.01-2.751-1.06-3.418-.98-6.32-1.42-2.568-2.09-2.359-1.97-3.261-5.2l2.033-3.22c2.155-1.03 3.489-1.83 5.524-3.05m426.912-50.66c3.46.31 3.36.2 6.51 1.57l.46 1.94c-2.99 4.75-5.93 4.87-6.67 9.42-.51.71-.1.29-1.6.7-2.37-3.92-3.41-4.92-4.08-9.37 1.17-3.12 1.27-2.27 5.38-4.26m-341.342 76.45.656.35c3.494 9.93 3.643 4.53-1.076 14.41-2.787-4.61-6.13-6.52-6.526-10.81 2.1-2.13 4.193-2.75 6.946-3.95m512.212-280.77c3.14 1.11 6.07 1.72 8.28 4.1-.01 3.83-.51 3.32-2.78 7.19-3.13-.65-4.25-.63-6.78-2.64-1.07-4.46-.52-3.5 1.28-8.65m-848.901 79.09 1.209 1.5c-.559 5.47 2.016 4.59 2.49 9.27-3.105.89-4.959 1.61-7.962 2.83-.294-2.42-.858-4.07-1.595-6.4l-.49-1.52c5.275-2.63 3.173-.51 6.348-5.68m-32.115-165.422a167 167 0 0 1 11.93 3.548l.166 1.188-2.762.625c-2.706 3.291-4.988 6.002-9.131 3.702-1.693-3.923-.852-4.051-.203-9.063m267.352-537.966c2.947 1.633 3.315 1.867 5.893 4.025.257 3.702-.399 3.134-3.284 7.086-2.911.983-1.479.969-4.443-.023-2.956-5.022-1.001-7.071 1.834-11.088m184.025-64.673c2.556 2.035 2.856 2.248 5.079 4.862-.775 3.581-1.857 3.41-5.341 6.479-2.5-2.048-4.38-2.783-5.395-5.364 2.191-2.058 3.686-3.753 5.657-5.977m369.749 781.961c4.06.26 4.17-.73 8.62-.17 1.7 2.89 1.01 3.47.94 7.47-4.49-.84-7.66-.87-10.11-4.38z"/></svg>
